<svg width="1440" height="1024" viewBox="0 0 1440 1024" fill="none" xmlns="http://www.w3.org/2000/svg">
<g clip-path="url(#clip0_1_718)">
<rect width="1440" height="1024" fill="#DFDFDF"/>
<rect x="1456.91" y="378.599" width="634.204" height="1578.96" transform="rotate(75 1456.91 378.599)" fill="#8A64EC" fill-opacity="0.15"/>
<path d="M1988.52 1904.65C1457.94 1542.63 1400.22 1484.96 1372.46 1177.17C1352.98 1016.71 1267.69 667.208 1001.34 585.757C734.985 504.306 461.969 123.583 357.058 -58.8792" stroke="#AB98DD" stroke-width="0.5"/>
<path d="M1968.99 1847.88C1416.97 1518.5 1360.95 1459.98 1309.55 1159.2C1272.62 1002.04 1170.48 652.615 899.406 587.255C628.332 521.895 336.246 162.887 220.421 -12.7971" stroke="#AB98DD" stroke-width="0.5"/>
<path d="M1949.35 1791.62C1377.88 1496.06 1323.22 1436.3 1248.9 1144.21C1194.83 991.845 1075.49 643.267 800.67 594.233C525.845 545.198 216.268 208.745 89.9445 40.47" stroke="#AB98DD" stroke-width="0.5"/>
<path d="M1929.64 1735.88C1340.76 1475.19 1287.11 1413.84 1190.69 1132.05C1119.91 985.941 983.065 639.025 705.475 606.491C427.886 573.957 102.433 260.789 -33.9373 100.526" stroke="#AB98DD" stroke-width="0.5"/>
<path d="M1909.89 1680.64C1305.72 1455.76 1252.67 1392.5 1135.08 1122.56C1048.15 984.124 893.518 639.725 614.159 623.808C334.799 607.89 -4.88783 318.626 -150.815 166.949" stroke="#AB98DD" stroke-width="0.5"/>
<path d="M1890.14 1625.89C1272.84 1437.63 1219.96 1372.2 1082.26 1115.57C979.829 986.174 807.168 645.183 527.039 645.939C246.91 646.696 -105.347 381.839 -260.307 239.293" stroke="#AB98DD" stroke-width="0.5"/>
<path d="M1870.42 1571.62C1242.2 1420.66 1189.02 1352.83 1032.36 1110.88C915.201 991.85 724.318 655.196 444.424 672.623C164.53 690.051 -198.621 449.994 -362.059 317.09" stroke="#AB98DD" stroke-width="0.5"/>
<path d="M1850.76 1517.82C1213.87 1404.69 1159.9 1334.29 985.519 1108.31C854.51 1000.9 645.258 669.542 366.602 703.577C87.9464 737.613 -284.418 522.638 -455.748 399.852" stroke="#AB98DD" stroke-width="0.5"/>
<path d="M1831.18 1464.47C1187.92 1389.58 1132.64 1316.49 941.874 1107.67C797.982 1013.04 570.267 687.982 293.848 738.503C17.4294 789.024 -362.47 599.301 -541.076 487.073" stroke="#AB98DD" stroke-width="0.5"/>
<path d="M1811.73 1411.55C1164.38 1375.18 1107.27 1299.32 901.533 1108.73C745.823 1028.01 499.607 710.261 226.415 777.087C-46.7759 843.912 -432.54 679.501 -617.783 578.234" stroke="#AB98DD" stroke-width="0.5"/>
<path d="M1792.41 1359.05C1143.31 1361.32 1083.82 1282.68 864.596 1111.3C698.22 1045.49 433.522 736.106 164.537 818.997C-104.448 901.887 -494.424 762.741 -685.639 672.799" stroke="#AB98DD" stroke-width="0.5"/>
<path d="M1773.26 1306.94C1124.73 1347.84 1062.31 1266.47 831.149 1115.15C655.344 1065.19 372.244 765.23 108.429 863.888C-155.385 962.545 -547.943 848.513 -744.445 770.218" stroke="#AB98DD" stroke-width="0.5"/>
<path d="M1754.29 1255.21C1108.66 1334.59 1042.75 1250.58 801.266 1120.07C617.34 1086.78 315.982 797.334 58.2842 911.405C-199.414 1025.48 -592.955 936.305 -794.039 869.937" stroke="#AB98DD" stroke-width="0.5"/>
<path d="M1735.52 1203.83C1095.1 1321.41 1025.15 1234.91 775.003 1125.82C584.334 1109.93 264.931 832.102 14.272 961.177C-236.387 1090.25 -629.347 1025.59 -834.292 971.388" stroke="#AB98DD" stroke-width="0.5"/>
<path d="M1716.98 1152.78C1084.07 1308.14 1009.52 1219.36 752.405 1132.18C556.431 1134.31 219.262 869.213 -23.4591 1012.83C-266.18 1156.45 -657.039 1115.85 -865.11 1074" stroke="#AB98DD" stroke-width="0.5"/>
<path d="M1698.67 1102.04C1075.53 1294.62 995.864 1203.83 733.502 1138.92C533.713 1159.59 179.13 908.33 -54.784 1065.97C-288.697 1223.62 -675.984 1206.54 -886.434 1177.21" stroke="#AB98DD" stroke-width="0.5"/>
<path d="M1680.61 1051.58C1069.48 1280.69 984.164 1188.21 718.307 1145.81C516.239 1185.41 144.666 949.111 -79.6018 1120.22C-303.869 1291.32 -686.164 1297.15 -898.239 1280.43" stroke="#AB98DD" stroke-width="0.5"/>
<path d="M1662.81 1001.39C1065.88 1266.2 974.412 1172.4 706.822 1152.63C504.044 1211.44 115.981 991.207 -97.8376 1175.16C-311.656 1359.11 -687.601 1387.13 -900.54 1383.09" stroke="#AB98DD" stroke-width="0.5"/>
<path d="M1645.27 951.428C1064.69 1251 966.591 1156.32 699.032 1159.14C497.143 1237.31 93.1633 1034.26 -109.439 1230.4C-312.042 1426.54 -680.342 1475.97 -893.382 1484.62" stroke="#AB98DD" stroke-width="0.5"/>
<path d="M1628.02 901.685C1065.85 1234.95 960.68 1139.85 694.909 1165.12C495.526 1262.7 76.2806 1077.91 -114.381 1285.54C-305.042 1493.16 -664.469 1563.15 -876.846 1584.45" stroke="#AB98DD" stroke-width="0.5"/>
<path d="M1611.04 852.137C1069.31 1217.89 956.654 1122.91 694.414 1170.36C499.161 1287.24 65.3793 1121.79 -112.657 1340.16C-290.694 1558.53 -640.096 1648.14 -851.048 1682.03" stroke="#AB98DD" stroke-width="0.5"/>
<path d="M1594.34 802.76C1074.99 1199.69 954.481 1105.4 697.489 1174.62C507.993 1310.6 60.4802 1165.54 -104.294 1393.86C-269.068 1622.19 -607.367 1730.46 -816.137 1776.81" stroke="#AB98DD" stroke-width="0.5"/>
<path d="M1577.94 753.536C1082.82 1180.22 954.126 1087.24 704.068 1177.7C521.946 1332.44 61.5844 1208.78 -89.3366 1446.25C-240.257 1683.71 -566.456 1809.6 -772.296 1868.24" stroke="#AB98DD" stroke-width="0.5"/>
<path d="M1561.82 704.442C1092.72 1159.36 955.55 1068.33 714.068 1179.39C540.92 1352.44 68.668 1251.16 -67.8593 1496.91C-204.387 1742.66 -517.567 1885.09 -719.739 1955.81" stroke="#AB98DD" stroke-width="0.5"/>
<path d="M1545.99 655.46C1104.59 1136.97 958.71 1048.6 727.396 1179.49C564.793 1370.25 81.686 1292.3 -39.9586 1545.46C-161.603 1798.62 -460.935 1956.45 -658.714 2039.01" stroke="#AB98DD" stroke-width="0.5"/>
<path d="M1530.45 606.571C1118.32 1112.95 963.561 1027.96 743.948 1177.81C593.426 1385.58 100.572 1331.85 -5.75399 1591.51C-112.08 1851.17 -396.818 2023.24 -589.494 2117.33" stroke="#AB98DD" stroke-width="0.5"/>
<path d="M1515.2 557.756C1133.82 1087.19 970.051 1006.33 763.605 1174.15C626.655 1398.11 125.235 1369.44 34.6083 1634.68C-56.0186 1899.91 -325.506 2085.03 -512.388 2190.32" stroke="#AB98DD" stroke-width="0.5"/>
<path d="M1500.22 509C1150.97 1059.59 978.127 983.637 786.239 1168.34C664.297 1407.56 155.563 1404.74 80.9601 1674.59C6.35706 1944.44 -247.311 2141.4 -427.73 2257.51" stroke="#AB98DD" stroke-width="0.5"/>
<path d="M1485.53 460.284C1169.65 1030.06 987.733 959.811 811.714 1160.21C706.154 1413.64 191.425 1437.39 133.113 1710.89C74.8011 1984.39 -162.571 2191.96 -335.879 2318.47" stroke="#AB98DD" stroke-width="0.5"/>
<path d="M1471.11 411.592C1189.74 998.504 998.81 934.779 839.878 1149.59C752.005 1416.08 232.665 1467.06 190.853 1743.24C149.04 2019.41 -71.6467 2236.33 -237.223 2372.79" stroke="#AB98DD" stroke-width="0.5"/>
<path d="M1456.96 362.911C1211.1 964.859 1011.3 908.476 870.577 1136.33C801.615 1414.63 279.109 1493.43 253.946 1771.28C228.783 2049.14 25.0795 2274.17 -132.171 2420.09" stroke="#AB98DD" stroke-width="0.5"/>
<path d="M1443.07 314.225C1233.61 929.051 1025.12 880.837 903.641 1120.3C854.729 1409.05 330.561 1516.18 322.137 1794.72C313.713 2073.25 127.203 2305.15 -21.1572 2460" stroke="#AB98DD" stroke-width="0.5"/>
<path d="M1429.45 265.521C1257.13 891.021 1040.23 851.804 938.898 1101.36C911.081 1399.13 386.808 1535.01 395.153 1813.23C403.499 2091.46 234.303 2328.97 95.365 2492.21" stroke="#AB98DD" stroke-width="0.5"/>
<path d="M1416.07 216.787C1281.52 850.718 1056.54 821.32 976.165 1079.39C970.388 1384.65 447.616 1549.62 472.701 1826.54C497.785 2103.45 345.941 2345.37 216.922 2516.4" stroke="#AB98DD" stroke-width="0.5"/>
<path d="M1402.94 168.009C1306.64 808.099 1073.98 789.33 1015.25 1054.28C1032.35 1365.45 512.735 1559.76 554.468 1834.37C596.201 2108.98 461.659 2354.09 343.023 2532.3" stroke="#AB98DD" stroke-width="0.5"/>
<path d="M1390.05 119.176C1332.34 763.131 1092.49 755.784 1055.97 1025.94C1096.67 1341.34 581.896 1565.15 640.128 1836.47C698.359 2107.8 580.989 2354.92 473.162 2539.67" stroke="#AB98DD" stroke-width="0.5"/>
<path d="M1377.38 70.278C1358.47 715.789 1111.97 720.638 1098.11 994.289C1163.02 1312.19 654.816 1565.55 729.338 1832.62C803.86 2099.68 703.451 2347.66 606.818 2538.3" stroke="#AB98DD" stroke-width="0.5"/>
<path d="M1364.94 21.3025C1384.89 666.055 1132.36 683.845 1141.48 959.243C1231.08 1277.88 731.194 1560.74 821.738 1822.59C912.283 2084.44 828.549 2332.17 743.458 2528" stroke="#AB98DD" stroke-width="0.5"/>
<path d="M1352.71 -27.7569C1411.45 613.927 1153.58 645.37 1185.86 920.752C1300.51 1238.29 810.716 1550.52 916.959 1806.21C1023.2 2061.91 955.783 2308.3 882.539 2508.63" stroke="#AB98DD" stroke-width="0.5"/>
<path d="M1340.68 -76.9123C1438.01 559.402 1175.54 605.173 1231.04 878.762C1370.96 1193.35 893.059 1534.68 1014.62 1783.31C1136.18 2031.93 1084.65 2275.96 1023.51 2480.06" stroke="#AB98DD" stroke-width="0.5"/>
<path d="M1328.85 -126.17C1464.41 502.494 1198.16 563.223 1276.81 833.244C1442.1 1143.01 977.878 1513.07 1114.32 1753.74C1250.76 1994.4 1214.62 2235.08 1165.81 2442.23" stroke="#AB98DD" stroke-width="0.5"/>
<path d="M1317.21 -175.54C1490.52 443.22 1221.36 519.492 1322.96 784.174C1513.56 1087.21 1064.83 1485.54 1215.66 1717.38C1366.49 1949.22 1345.19 2185.62 1308.89 2395.07" stroke="#AB98DD" stroke-width="0.5"/>
<path d="M1305.74 -225.028C1516.18 381.61 1245.04 473.953 1369.26 731.544C1584.99 1025.95 1153.55 1451.96 1318.23 1674.14C1482.92 1896.32 1475.84 2127.58 1452.17 2338.58" stroke="#AB98DD" stroke-width="0.5"/>
<path d="M1294.44 -274.641C1541.25 317.701 1269.13 426.586 1415.5 675.36C1656.04 959.238 1243.67 1412.22 1421.62 1623.96C1599.56 1835.69 1606.05 2060.98 1595.09 2272.78" stroke="#AB98DD" stroke-width="0.5"/>
<path d="M1283.3 -324.384C1565.6 251.537 1293.54 377.373 1461.46 615.639C1726.35 887.103 1334.83 1366.25 1525.39 1566.77C1715.96 1767.29 1735.29 1985.88 1737.1 2197.7" stroke="#AB98DD" stroke-width="0.5"/>
<path d="M1269.48 -373.508C1586.25 183.928 1315.34 327.057 1504.11 553.166C1792.74 810.353 1423.8 1314.74 1626.3 1503.33C1828.81 1691.93 1860.24 1903.1 1874.8 2114.21" stroke="#AB98DD" stroke-width="0.5"/>
<path d="M1255.49 -422.307C1605.6 114.647 1336.97 275.339 1545.74 487.696C1857.37 728.777 1512.73 1257.36 1726.45 1433.35C1940.16 1609.34 1982.9 1812.5 2010.16 2022.12" stroke="#AB98DD" stroke-width="0.5"/>
<path d="M1241.77 -470.886C1623.97 43.6609 1358.79 222.112 1586.62 419.184C1920.36 642.372 1601.68 1194 1825.85 1356.75C2050.01 1519.51 2103.23 1714.09 2143.09 1921.48" stroke="#AB98DD" stroke-width="0.5"/>
<path d="M1228.36 -519.264C1641.27 -28.9689 1380.75 167.358 1626.55 347.68C1981.4 551.243 1690.3 1124.66 1924.11 1273.59C2157.92 1422.53 2220.77 1608.06 2273.09 1812.47" stroke="#AB98DD" stroke-width="0.5"/>
<path d="M1215.27 -567.461C1657.42 -103.175 1402.79 111.064 1665.39 273.249C2040.18 455.514 1778.23 1049.34 2020.85 1183.92C2263.46 1318.51 2335.07 1494.58 2399.66 1695.27" stroke="#AB98DD" stroke-width="0.5"/>
</g>
<defs>
<clipPath id="clip0_1_718">
<rect width="1440" height="1024" fill="white"/>
</clipPath>
</defs>
</svg>